<?xml version="1.0" encoding="UTF-8"?>
<svg id="b" data-name="Layer 2" xmlns="http://www.w3.org/2000/svg" width="236.515" height="334" viewBox="0 0 236.515 334">
  <g id="c" data-name="death">
    <g>
      <path d="M69.362,185.303c-32.954-10.774-55.69-31.403-65.3-65-6.151-21.501-5.31-43.016,2.482-63.855C19.153,22.723,45.281,6.351,79.763,1.419c1.217-.174,2.46-.165,3.677-.34,9.892-1.419,19.957-3.368,26.044,8.489-.916-2.708-1.831-5.416-3.235-9.568,8.257,1.039,15.7,1.652,23.019,2.959,20.616,3.683,39.741,11.14,56.714,23.612,49.326,36.245,50.173,99.897,1.85,137.605-3.241,2.529-6.594,4.914-9.895,7.366.077.749.154,1.498.231,2.247,14.119,0,28.243-.223,42.356.068,11.92.246,16.601,5.001,15.928,16.988-.364,6.479-1.795,13.243-4.454,19.101-1.293,2.848-6.655,5.554-9.909,5.27-2.657-.232-5.759-4.638-7.133-7.849-1.542-3.604-1.364-7.945-3.464-11.95,0,1.902.289,3.857-.05,5.695-1.411,7.637-2.305,15.496-4.924,22.716-.922,2.54-6.384,4.986-9.509,4.69-2.589-.245-5.687-4.209-6.938-7.203-1.554-3.721-1.44-8.14-2.021-12.08h-41.88c1.8,10.382,3.428,19.769,5.055,29.156-.909.268-1.818.535-2.726.803-.767-1.597-1.87-3.119-2.242-4.803-1.431-6.479-2.779-12.984-3.854-19.53-.655-3.987-2.614-5.26-6.548-4.936-8.068.665-16.166.973-24.772,1.457-.271,2.033-.623,3.886-.75,5.754-1.083,15.84-2.498,31.672-3.004,47.532-.217,6.788,2.07,13.641,2.035,20.458-.014,2.811-2.741,7.558-4.937,8.01-4.895,1.008-7.02-3.58-6.512-7.666.868-6.988,2.296-14.015,4.491-20.696,1.994-6.067,3.728-11.416-.264-17.497-1.521-2.317-1.081-6.126-1.009-9.243.185-8.118.996-16.237.824-24.34-.054-2.528-2.45-5.007-4.015-7.964,9.239-.839,6.667-8.491,7.922-14.562-9.424-1.257-18.414-2.366-27.373-3.691-4.303-.636-5.871,1.718-4.669,5.033,1.644,4.533,4.339,8.692,6.66,12.97,3.152,5.811,6.375,11.582,8.831,17.75-7.361-2.197-20.318-27.991-19.95-37.928ZM105.393,185.591c-4.303-10.348,3.036-16.827,7.227-24.083,1.159-2.007,4.996-3.598,7.529-3.497,16.54.656,33.06,1.83,49.708,2.842-.703,2.225,3.58,8.076-4.051,8.714-14.455,1.208-28.939,2.061-43.405,3.152-10.263.773-11.22,2.217-8.926,13.468,5.508-.585,11.071-1.176,16.596-1.763.091-10.375.142-10.419,11.293-9.811.509,2.215,1.038,4.519,1.393,6.062,2.496-2.703,4.46-5.703,7.227-7.36.984-.589,3.919,2.083,4.699,2.534,22.644-5.905,39.313-19.416,50.455-36.239-1.508-6.022-2.496-9.969-3.492-13.946-9.889-1.575-1.543,9.271-7.672,10.845-.349-1.193-.589-2.303-.995-3.348-.991-2.556-2.059-5.082-3.095-7.621-.931,2.391-1.826,4.796-2.807,7.166-.457,1.105-1.08,2.141-1.642,3.237-4.796-2.795,2.185-11.423-6.7-11.645-.632,3.191-1.192,6.02-1.866,9.425-4.87-3.617,1.477-12.089-7.461-12.328-.503,2.884-.994,5.703-1.485,8.522-2.291-4.454-2.017-9.532-4.267-12.945-11.115-16.857-6.243-31.732,13.409-35.346,13.015-2.394,26.546-1.98,39.779-2.818C212.037,42.131,152.485-.724,115.81,6.368c.496,5.801.983,11.491,1.606,18.776,3.428,2.911,11.633,4.974,8.515,14.174,9.488,1.612,10.228-7.762,16.425-10-2.64,4.988-5.346,10.554-9.792,13.259-8.046,4.895-8.864,7.451-1.414,13.755,6.58,5.567,7.362,11.03,1.745,20.829,2.058-9.119-1.69-14.008-6.7-18.959-2.76-2.727-3.947-7.344-5.094-11.325-1.202-4.172-.132-9.691-2.501-12.685-4.413-5.576-9.911-9.27-12.282-17.354-3.038-10.356-12.216-15.426-23.981-11.383-1.135.39-2.439.282-3.66.433C38.682,10.824,11.121,37.791,5.86,77.688c-2.06,15.619-6.182,17.315,15.862,18.21.264.011.507.562,2.08,2.424-6.829,1.153-12.577,2.124-18.331,3.096.666,47.255,48.097,87.754,99.922,84.172ZM110.294,206.817c28.171-1.091,55.089-2.133,81.927-3.172.61,5.882.781,10.839,1.785,15.62.416,1.983,2.48,4.874,4.032,5.034,1.772.183,4.931-1.838,5.52-3.571,1.715-5.046,3.101-10.384,3.431-15.682.682-10.96-2.081-13.685-12.951-13.992-21.894-.619-43.79-1.25-65.689-1.627-5.57-.096-11.157.746-17.295,1.198-.254,5.408-.481,10.239-.761,16.192ZM217.184,189.503c.715,6.742.903,11.681,1.905,16.45.42,1.997,2.41,4.904,3.967,5.094,1.757.214,4.995-1.783,5.55-3.484,1.729-5.3,3.161-10.875,3.489-16.416.594-10.041-2.276-12.92-12.187-13.23-14.27-.446-28.599-1.482-42.806-.635-9.581.571-18.995,3.954-28.483,6.08.19.523.379,1.046.569,1.569,22.554,1.517,45.108,3.034,67.995,4.574Z" stroke-width="0"/>
      <path d="M104.825,302.962c2.304,4.774,4.857,9.449,6.818,14.36,1.15,2.88,1.926,6.151,1.849,9.221-.106,4.278-2.409,8.335-7.124,7.291-2.641-.585-6.523-4.501-6.448-6.805.268-8.187,1.996-16.326,3.171-24.483l1.734.416Z" stroke-width="0"/>
      <path d="M115.691,132.831c-.303-3.29-.605-6.58-.944-10.259-9.3,2.65-2.189,11.835-7.632,17.683-.543-4.699-.931-8.062-1.356-11.743-10.138.12-2.907,10.353-8.895,14.419-.408-4.187-.716-7.344-1.226-12.575-2.597,2.201-5.193,3.395-5.991,5.331-.996,2.415-.511,5.442-.666,8.204-.778.058-1.555.116-2.333.174-.456-3.3-.913-6.601-1.446-10.46-2.094.166-4.149.329-6.302.499-.328,3.543-.612,6.602-.93,10.036-5.959-1.77.869-12.888-9.28-10.468-.415,2.833-.874,5.974-1.421,9.711-5.48-2.623.995-12.832-8.522-11.436-.508,2.808-.994,5.498-1.703,9.42-4.492-4.405,1.069-13.884-8.602-13.027-.56,2.137-1.13,4.316-1.701,6.494-.431.026-.862.053-1.293.079-.97-4.295-1.939-8.589-2.909-12.884-.605.046-1.21.092-1.815.138-.512,1.863-1.024,3.726-1.538,5.594-.923-.216-1.736-.247-1.777-.44-1.746-8.281-4.072-16.509-4.951-24.888-1.204-11.473,5.071-20.567,16.008-23.376,18.028-4.631,36.086-4.555,53.537,2.65,17.348,7.162,21.263,15.862,17.095,34.074-1.248,5.454-.704,11.319-.981,16.995-.809.018-1.618.036-2.427.054Z" stroke-width="0"/>
      <path d="M61.298,150.189c7.387,8.964,17.277,9.199,27.423,9.274,8.785.065,11.728,6.59,7.693,16.006-.411-.18-1.128-.291-1.189-.554-2.648-11.373-2.684-10.955-14.646-12.196-5.645-.586-11.218-2.806-16.55-4.963-1.958-.792-3.127-3.537-4.656-5.391.642-.725,1.284-1.45,1.926-2.175Z" stroke-width="0"/>
      <path d="M146.176,129.095c-3.75,3.436-6.049,6.269-9.019,7.787-.811.414-5.527-4.155-5.239-4.682,1.906-3.488,4.687-6.498,7.183-9.664,1.856,1.721,3.713,3.442,7.075,6.559Z" stroke-width="0"/>
      <path d="M144.579,128.997c3.304-2.979,6.232-6.055,6.529-5.819,2.788,2.217,5.563,4.749,7.306,7.785.469.817-2.592,3.662-4.033,5.576-2.784-2.142-5.568-4.285-9.802-7.542Z" stroke-width="0"/>
      <path d="M146.71,156.18c-1.339-12.359.021-14.331,8.452-12.398.132,2.034.374,4.186.382,6.338.008,1.917-.242,3.835-.434,6.545-3.041-.175-5.777-.333-8.4-.485Z" stroke-width="0"/>
      <path d="M133.69,154.977c.087-10.806.174-10.917,10-11.679-.563,3.904-1.092,7.567-1.686,11.679h-8.314Z" stroke-width="0"/>
      <path d="M178.249,161.583c-2.109-6.425-2.043-11.16,4.921-13.212,4.299-1.267,8.315-3.496,13.563-4.076-1.699,1.612-3.193,3.549-5.137,4.772-5.154,3.24-13.809,2.403-13.346,12.516Z" stroke-width="0"/>
      <path d="M161.948,144.128c2.88,2.625,5.761,5.251,8.641,7.876l-1.663,3.076c-3.007.757-6.015,1.514-10.105,2.544.376-4.657.658-8.154.94-11.651.729-.615,1.458-1.23,2.187-1.846Z" stroke-width="0"/>
      <path d="M118.33,152.463c3.493-2.186,6.986-4.373,11.458-7.171v9.73c-3.634-.193-7.257-.385-10.88-.577-.193-.661-.385-1.322-.578-1.982Z" stroke-width="0"/>
      <path d="M127.894,175.415c-1.123,2.787-1.867,5.787-2.392,5.749-3.334-.24-6.619-1.152-9.92-1.842.067-.853.134-1.706.201-2.559,3.571-.397,7.142-.795,12.111-1.348Z" stroke-width="0"/>
    </g>
  </g>
</svg>