<?xml version="1.0" encoding="UTF-8"?>
<svg id="b" data-name="Layer 2" xmlns="http://www.w3.org/2000/svg" width="333.382" height="321.219" viewBox="0 0 333.382 321.219">
  <g id="c" data-name="dirt">
    <g>
      <path d="M218.359,312.091c10.287,0,19.643-.271,28.966.17,2.69.127,5.283,2.301,7.921,3.537-2.474,1.332-4.943,3.819-7.421,3.827-67.453.211-134.907.211-202.36.002-2.497-.008-4.986-2.46-7.479-3.773,2.617-1.254,5.223-3.567,7.854-3.598,24.452-.28,48.909-.168,73.364-.17,3.169,0,6.339,0,10.46,0,0-14.902,0-29.071,0-43.24,0-2.419-.162-4.852.027-7.256,1.113-14.154.671-27.383-12.279-37.355-4.319-3.326-6.512-9.735-8.87-15.091-.702-1.595,1.34-4.399,2.125-6.649,2.018.827,5.182,1.108,5.878,2.566,6.976,14.63,17.337,25.683,32.047,32.746,1.511.726,1.882,3.827,2.782,5.826-2.198.9-4.333,2.171-6.618,2.559-1.327.225-2.895-.968-4.969-1.757v66.98h68.831c0-19.095.295-38.109-.167-57.104-.153-6.278-6.479-8.818-13.011-7.27-2.728.647-5.975-.894-8.986-1.44,1.862-2.425,3.21-5.995,5.665-7.1,25.568-11.51,37.611-31.736,38.755-59.084.371-8.856-.211-17.758.314-26.598.126-2.122,2.93-4.085,4.502-6.121,1.603,1.797,4.675,3.673,4.582,5.377-.931,17.076-1.186,34.339-4.189,51.09-1.515,8.455-7.549,16.507-12.916,23.717-3.478,4.671-4.955,8.888-4.901,14.5.221,23.09.092,46.183.092,70.709Z" stroke-width="0"/>
      <path d="M136.727,18.614c0,10.917.316,21.895-.206,32.833-.144,3.019-2.587,8.298-4.317,8.443-6.023.504-4.956-4.941-5.003-8.752-.134-10.744-.221-21.495.016-32.235C127.477,7.169,134.366-.078,144.69,0c10.254.078,17.114,7.587,17.227,19.164.12,12.346.027,24.693,1.494,37.667,4.321-8.65,8.657-17.293,12.959-25.953,7.767-15.636,15.743-18.21,30.89-9.921,3.53,1.932,7.142,3.738,10.532,5.894,7.366,4.685,10.295,12.502,7.774,20.116-2.621,7.916-9.395,13.033-17.876,11.826-5.014-.713-6.297,1.641-8.477,4.957-8.093,12.307-11.876,25.462-10.294,40.292.708,6.635.405,13.451-.23,20.109-.176,1.846-3.184,3.422-4.893,5.121-1.445-1.625-4.186-3.289-4.139-4.869.642-21.339-5.006-43.721,9.865-62.858,1.615-2.078,2.552-4.683,2.06-6.881-.718-3.203-1.435-6.407-2.153-9.61,3.396.197,6.863.038,10.17.688,3.481.684,7.334,5.95,10.047-.15,2.22-4.992,2.691-10.598-3.275-14.127-2.538-1.501-5.172-2.841-7.788-4.205-5.05-2.633-8.972-1.092-11.406,3.719-8.236,16.274-16.831,32.405-24.106,49.106-2.289,5.253-.986,12.127-1.093,18.263-.137,7.788.326,15.607-.243,23.356-.188,2.557-2.777,4.938-4.269,7.4-1.733-2.474-4.945-4.93-4.975-7.424-.35-29.815-.215-59.636-.236-89.455-.007-10.344-4.061-14.058-15.527-13.611Z" stroke-width="0"/>
      <path d="M127.149,98.698c0-7.311-.159-14.002.06-20.681.13-3.988-1.458-9.811,5.005-9.582,1.613.057,4.269,5.97,4.318,9.223.367,24.433.368,48.877.075,73.312-.068,5.639,1.389,9.137,6.231,12.535,14.168,9.942,21.732,24.143,23.693,41.27.444,3.879,1.391,9.051-4.299,9.331-1.611.079-4.633-4.945-5.038-7.899-2.218-16.17-9.448-29.084-23.637-37.341-4.916-2.86-6.678-6.191-6.488-11.604.301-8.583.103-17.185.071-25.779-.042-11.039-2.507-13.579-15.271-14.865,0,6.671-.005,13.26.001,19.849.015,15.308.237,30.621-.161,45.918-.061,2.35-2.969,4.627-4.56,6.937-1.632-2.301-4.645-4.58-4.683-6.906-.361-22.553-.51-45.119-.107-67.67.207-11.568,8.514-16.797,24.789-16.048Z" stroke-width="0"/>
      <path d="M217.761,74.034c.939-5.279,1.475-8.291,2.011-11.302,2.949,1.468,6.294,2.464,8.748,4.522,3.046,2.555,5.14,6.219,8.069,8.949,1.563,1.457,4.494,3.151,5.946,2.573,1.668-.664,3.491-3.839,3.295-5.72-.509-4.892-1.413-9.98-3.435-14.406-1.848-4.044-5.693-7.131-7.996-11.032-.96-1.625-.205-4.263-.229-6.44,2.397.096,6.004-.784,6.994.445,6.375,7.911,12.84,15.896,17.952,24.632,3.872,6.617.533,15.423-5.749,19.955-6.122,4.417-15.148,4.353-20.967-.547-1.987-1.674-3.24-4.22-4.445-5.848-12.102,4.769-14.807,12.708-12.037,24.377,4.352-3.578,8.073-7.328,12.467-9.949,2.117-1.263,5.501-.4,8.311-.499-.71,2.515-.698,5.701-2.28,7.409-3.439,3.713-7.693,6.67-11.612,9.94-4.345,3.625-8.594,7.071-7.996,13.866.144,1.63-3.012,3.552-4.65,5.339-1.557-1.842-4.401-3.642-4.464-5.533-.408-12.346-.403-24.718-.044-37.068.066-2.255,2-4.819,3.74-6.58,3.001-3.038,6.527-5.558,8.369-7.084Z" stroke-width="0"/>
      <path d="M242.373,111.182c.992-3.097,1.984-6.194,2.975-9.291,2.745,1.62,5.632,3.046,8.178,4.934,1.451,1.076,2.054,3.659,3.55,4.236,3.082,1.187,6.506,1.484,9.79,2.147.58-3.308,2.395-7.033,1.452-9.825-1.41-4.173-5.208-7.483-7.106-11.57-.994-2.141-.104-5.158-.064-7.78,2.651.892,6.014,1.068,7.794,2.838,2.987,2.968,5.074,6.883,7.346,10.521,4.896,7.841,4.432,15.445-1.147,21.436-5.651,6.067-13.066,6.994-21.25,2.628-1.144-.61-2.23-1.328-3.23-1.928-5.771,3.74-11.251,6.96-10.267,15.093.189,1.564-3.042,3.541-4.696,5.327-1.527-1.849-3.821-3.467-4.455-5.584-3.489-11.653,5.763-16.546,11.13-23.18Z" stroke-width="0"/>
      <path d="M111.792,253.652c.043,6.893-5.667,12.685-12.649,12.83-7.073.147-12.816-5.257-13.059-12.289-.251-7.262,5.741-13.489,12.903-13.409,6.698.075,12.763,6.17,12.805,12.868Z" stroke-width="0"/>
      <path d="M287.084,319.775c-5.099.003-10.227.314-15.281-.159-1.862-.174-3.551-2.2-5.319-3.381,1.629-1.359,3.219-3.837,4.892-3.893,10.452-.352,20.927-.312,31.382.007,1.547.047,3.028,2.254,4.54,3.462-1.639,1.321-3.181,3.6-4.937,3.78-5.046.516-10.179.182-15.278.185Z" stroke-width="0"/>
      <path d="M217.115,190.808c-4.992,7.86-9.417,15.327-14.491,22.322-.845,1.165-4.521.275-6.889.334.018-2.156-.667-4.652.179-6.409,3.199-6.646,6.703-13.171,10.537-19.47,1.004-1.649,4.038-3.587,5.379-3.135,1.85.623,2.977,3.39,5.284,6.358Z" stroke-width="0"/>
      <path d="M258.835,279.802c-1.18,5.753-4.588,9.072-10.564,8.935-5.648-.129-9.853-5.387-9.01-11.113.893-6.064,4.803-8.949,10.732-8.376,6.078.588,8.698,4.617,8.843,10.554Z" stroke-width="0"/>
      <path d="M106.635,278.015c2.243,3.095,6.432,6.352,6.191,9.239-.249,2.969-4.404,7.12-7.597,7.979-4.767,1.283-8.603-2.538-7.892-7.464.496-3.433,3.689-6.476,5.678-9.693,1.207-.02,2.414-.041,3.621-.061Z" stroke-width="0"/>
      <path d="M291.635,234.949c1.887,3.042,5.611,6.402,5.155,9.038-.476,2.753-4.767,6.196-7.796,6.655-1.836.278-6.216-4.52-6.235-7.062-.022-2.904,3.529-5.835,5.527-8.754,1.116.041,2.233.082,3.349.123Z" stroke-width="0"/>
      <path d="M9.791,319.796c-.531,0-1.136.169-1.581-.028-2.757-1.217-5.478-2.515-8.21-3.787,2.775-1.298,5.438-3.087,8.356-3.751,2.77-.63,5.941-.591,8.679.129,1.772.466,3.083,2.685,4.601,4.119-1.559,1.096-2.986,2.734-4.709,3.153-2.256.549-4.747.134-7.136.134v.029Z" stroke-width="0"/>
      <path d="M52.001,236.546c3.122,4.672,6.413,7.455,6.346,10.154-.057,2.285-3.999,4.474-6.222,6.705-2.358-2.386-6.1-4.505-6.628-7.244-.408-2.119,3.207-5.014,6.503-9.615Z" stroke-width="0"/>
      <path d="M194.466,266.632c-4.636,3.333-7.3,6.718-9.929,6.691-2.243-.023-6.504-4.333-6.191-6.091.485-2.726,3.786-6.226,6.491-6.863,2.015-.475,4.974,3.058,9.629,6.264Z" stroke-width="0"/>
      <path d="M324.362,319.652c-1.849,0-3.876.471-5.493-.142-1.419-.537-3.332-2.33-3.283-3.493.054-1.279,1.896-2.977,3.338-3.571,1.606-.661,3.788-.767,5.453-.253,3.103.957,6.014,2.538,9.005,3.859-2.713,1.722-5.426,3.444-8.14,5.166-.293-.522-.587-1.044-.88-1.566Z" stroke-width="0"/>
      <path d="M264.404,241.33c-4.572,2.645-7.366,5.557-9.454,5.116-2.208-.466-4.846-3.982-5.158-6.438-.187-1.471,3.782-4.926,5.774-4.843,2.368.099,4.618,3.035,8.839,6.165Z" stroke-width="0"/>
    </g>
  </g>
</svg>