<?xml version="1.0" encoding="UTF-8"?>
<svg id="b" data-name="Layer 2" xmlns="http://www.w3.org/2000/svg" width="298.811" height="335.831" viewBox="0 0 298.811 335.831">
  <g id="c" data-name="dust">
    <g>
      <path d="M57.752,248.428c-22.716-1.117-34.033-8.967-39.551-27.008-5.613-18.353-.403-32.593,14.827-44.087-1.573-20.032-3.051-38.854-4.503-57.344-6.973-2.208-15.715-4.548-24.046-7.909-2.156-.87-3.022-4.943-4.48-7.544,3.214-.496,6.551-1.774,9.61-1.291,3.842.607,7.347,3.221,11.191,3.962,7.415,1.428,12.848-.29,15.1-9.038,4.544-17.658,14.562-32.265,28.898-45.492-9.118-2.021-15.895-.68-22.557,4.133-2.303,1.664-6.318.957-9.551,1.333.937-3.37.823-7.832,2.992-9.922,9.931-9.568,22.12-8.766,34.682-6.652,4.422.744,9.431-.117,13.812-1.437,7.323-2.206,14.233-5.772,21.543-8.039,11.023-3.418,13.883-6.774,13.761-18.242-.023-2.15-.976-4.547-.298-6.386.996-2.698,3.076-4.996,4.694-7.465,2.096,2.196,5.689,4.2,6,6.626.842,6.56.288,13.299.288,21.167,17.906,0,36.331-1.245,54.49.414,13.308,1.215,26.179,4.175,39.92,2.697,13.581-1.461,26.262,3.427,35.372,14.382,1.797,2.161,1.268,6.259,1.812,9.464-3.17-.546-6.756-.33-9.425-1.791-6.189-3.388-11.935-7.587-17.861-11.457-.483.752-.965,1.504-1.448,2.256,1.384,1.1,3.154,1.947,4.076,3.351,2.218,3.377,5.708,7.132,5.471,10.508-.178,2.536-5.014,5.652-8.371,6.867-6.857,2.483-12.481,4.85-11.496,13.943.258,2.382-2.395,5.311-4.169,7.64-5.509,7.232-3.934,14.353,2.295,21.013,7.08,7.57,13.92,13.494,25.166,11.111,1.544-.327,3.516,2.381,5.469,2.759,3.764.729,8.151,2.112,11.399.886,8.693-3.281,12.261-2.293,15.561,6.46.757,2.006,1.65,4.093,1.77,6.184.454,7.945,2.366,14.046,10.791,18.021,3.944,1.861,6.156,8.643,7.742,13.643.629,1.984-2.567,5.182-4.021,7.828-2.28-1.933-4.969-3.554-6.739-5.876-2.274-2.983-3.809-6.529-6.449-11.234-4.292,7.972-7.308,13.574-10.634,19.751,17.568,12.34,22.061,29.441,14.458,49.079-6.514,16.825-19.454,24.886-38.43,21.945-7.047,18.882-17.921,34.666-34.122,46.316-4.975,3.578-10.203,6.947-15.698,9.624-8.889,4.33-16.96,7.605-20.498,19.279-3.515,11.601-16.203,13.189-27.257,12.956-11.11-.234-21.307-3.113-26.839-14.516-1.461-3.012-3.716-6.583-6.528-7.851-28.905-13.036-48.001-34.698-58.223-65.015ZM109.115,116.049c4.946,18.269,15.732,27.856,29.506,34.494,6.071,2.926,12.257,5.756,18.645,7.855,27.427,9.01,55.78,11.874,84.492,12.184,16.093.173,25.814-12.89,22.219-27.015-9.131-3.088-16.856-7.377-24.877-8.029-12.619-1.025-21.544-6.306-29.988-15.433-11.822-12.778-14.987-23.67-8.319-39.105,4.131-9.562,8.333-19.094,12.605-28.87-25.975-11.52-53.462-13.07-81.714-9.239-63.855,8.659-89.949,46.416-84.262,110.94.528,5.994,2.586,11.854,4.056,18.311,28.942-7.958,43.48-29.759,57.637-56.093ZM119.903,298.01c0-10.316-.259-17.917.063-25.492.449-10.56,5.043-16.254,15.419-17.357,9.094-.966,18.43-1.064,27.53-.195,11.836,1.13,16.09,6.327,16.568,18.098.253,6.236.045,12.49.045,19.332,28.823-10.43,47.166-31.039,52.804-58.883,3.094-15.277,5.317-30.731,7.982-46.397-46.048-2.997-92.527-5.739-128.66-35.041-16.001,12.566-31.01,24.354-46.593,36.593,1.931,13.394,3.829,28.912,6.47,44.303,3.443,20.066,12.818,37.134,28.214,50.526,5.625,4.893,12.122,8.784,20.159,14.513ZM147.547,307.91c-6.646-.609-11.746-1.076-18.326-1.679v14.581h44.395c-.224-4.985-.462-10.277-.7-15.569-.948-.107-1.897-.215-2.845-.322-1.816,1.581-3.631,3.163-5.261,4.582-1.355-2.076-2.471-3.785-3.954-6.059-2.634,3.226-3.946,4.834-5.236,6.414-1.547-1.626-3.141-3.302-5.083-5.345-1.597,1.814-2.766,3.142-2.989,3.396ZM172.434,281.661c.569-6.429,1.673-10.713.866-14.6-.252-1.216-5.626-1.673-8.702-1.94-8.001-.694-16.034-1.514-24.044-1.425-3.96.044-9.456.805-11.411,3.393-1.976,2.616-.436,7.891-.436,11.009,10.626-.545,19.064-.978,27.905-1.431.353.513,1.512,2.195,2.961,4.299,2.751-3.04,4.11-4.542,5.387-5.953,1.73,1.539,3.453,3.072,7.473,6.648ZM256.437,192.199c-2.06,13.017-4.037,25.51-6.015,38.01,12.139,1.805,19.367-4.739,20.952-17.302,1.564-12.403-2.83-19.244-14.937-20.708ZM54.087,230.713c-2.058-13.072-4.075-25.883-6.079-38.608-11.373,1.152-15.737,6.795-15.202,17.766.603,12.368,8.594,20.913,21.28,20.842Z" stroke-width="0"/>
      <path d="M244.746,86.944c-2.971.844-6.965,2.916-7.767,2.045-3.382-3.672-6.641-7.949-8.164-12.589-.576-1.756,3.661-5.092,5.704-7.707,2.59,4.623,5.181,9.246,10.227,18.252Z" stroke-width="0"/>
      <path d="M234.04,93.292c4.253,5.985,7.06,9.471,9.025,13.379.209.415-4.358,4.481-6.967,4.809-5.476.688-8.787-2.83-8.189-8.273.28-2.544,2.87-4.834,6.13-9.915Z" stroke-width="0"/>
      <path d="M199.01,250.423c-19.433.191-28.604-8.769-28.633-26.908-.029-18.294,9.745-27.752,28.266-27.35,23.458.509,37.8,18.398,29.642,37.427-5.653,13.185-17.399,16.338-29.275,16.831ZM198.028,234.095c3.088-5.529,6.292-8.73,6.042-11.635-.193-2.248-4.836-5.86-7.267-5.682-2.471.181-6.625,4.392-6.48,6.604.193,2.944,3.832,5.661,7.706,10.713Z" stroke-width="0"/>
      <path d="M97.81,189.079c8.94,2.963,18.258,5.118,26.725,9.089,10.928,5.126,13.712,13.859,9.803,25.382-5.085,14.992-20.51,23.584-35.893,19.993-16.08-3.753-26.189-18.319-23.796-34.285,1.966-13.119,9.239-19.14,23.161-20.18ZM105.524,224.115c3.354-5.439,6.682-8.459,6.257-10.796-.455-2.501-4.255-5.632-6.962-6.037-1.727-.258-5.718,3.883-5.793,6.148-.086,2.606,3.027,5.317,6.498,10.685Z" stroke-width="0"/>
      <path d="M167.109,239.312c-9.937-6.707-12.104-20.251-4.955-28.616,1.646,9.505,3.18,18.365,4.955,28.616Z" stroke-width="0"/>
      <path d="M140.689,226.787v-23.166c8.66,4.831,9.127,14.641,0,23.166Z" stroke-width="0"/>
    </g>
  </g>
</svg>